<mxfile host="app.diagrams.net" modified="2024-05-24T19:24:57.876Z" agent="Mozilla/5.0 (Macintosh; Intel Mac OS X 10_15_7) AppleWebKit/605.1.15 (KHTML, like Gecko) Version/17.5 Safari/605.1.15" version="24.4.8" etag="nZy6cYg7edJOGf4l4ehl" type="github">
  <diagram name="Page-1" id="6fvSnjRhwU6gPXlwIONp">
    <mxGraphModel>
      <root>
        <mxCell id="0" />
        <mxCell id="1" parent="0" />
      </root>
    </mxGraphModel>
  </diagram>
</mxfile>
